<svg width="500" height="400" viewBox="0 0 500 400" fill="none" xmlns="http://www.w3.org/2000/svg">
<path d="M86.5547 36.5L106.055 77C110.055 73.6667 116.855 64.1 112.055 52.5C107.255 40.9 93.0547 37 86.5547 36.5Z" fill="white"/>
<path d="M262.555 236C304.555 73.9994 198.055 34.4996 141.055 43C143.555 45.5 151.055 56.0004 151.055 66.001C232.555 71.9998 272.555 136.5 262.555 236Z" fill="white"/>
<path fill-rule="evenodd" clip-rule="evenodd" d="M231.963 110.265C257.602 141.98 271.175 196.499 250.554 288H203C198.166 278.333 194.353 246.4 219.554 200C248.636 146.452 238.083 120.606 231.963 110.265Z" fill="white"/>
<path fill-rule="evenodd" clip-rule="evenodd" d="M200.555 288C195.721 278.333 191.354 246.4 216.555 200C245.637 146.452 235.675 118.341 229.555 108C205.456 78.1919 173.106 70.792 146.055 69.5C143.255 38.3 117.221 25.5 104.555 23C114.555 42.5 116.055 61.6667 114.055 69.5C92.5547 107.167 49.0547 183.5 47.0547 187.5C44.5547 192.5 40.0547 223 64.0547 228.5C83.2544 232.9 94.7212 223 98.0547 217.5C96.7212 210 98.0547 194.4 114.055 192C170.854 182.8 173.721 142.5 168.055 123.5C178.555 151.5 169.055 184 139.555 206.5C115.955 224.5 91.3882 268.333 82.0547 288H200.555ZM113.942 117.696C112.942 114.03 113.321 105.675 121.942 105.196C130.274 104.733 132.607 105.127 137.668 105.982L138.942 106.196C135.109 109.696 126.642 116.896 123.442 117.696C120.242 118.496 115.776 118.03 113.942 117.696Z" fill="white"/>
<rect x="77.5547" y="291" width="177" height="10" rx="5" fill="white"/>
<path d="M258.555 317C248.955 317.8 248.555 308.667 249.555 304H81.5751C82.5751 308.667 82.1751 317.8 72.5751 317C60.5751 316 61.5751 351 61.5751 364H269.555C269.555 351 270.555 316 258.555 317Z" fill="white"/>
<path fill-rule="evenodd" clip-rule="evenodd" d="M244.365 74C254.954 84.351 263.946 97.5323 270.13 114H454V74H244.365Z" fill="white"/>
<path fill-rule="evenodd" clip-rule="evenodd" d="M454 44.9783H190C204.482 48.2786 219.256 54.3915 232.503 64.0004H454V44.9783Z" fill="white"/>
<path fill-rule="evenodd" clip-rule="evenodd" d="M273.415 124C276.765 135.8 278.772 149.089 279.081 164H454V124H273.415Z" fill="white"/>
<path fill-rule="evenodd" clip-rule="evenodd" d="M279.036 174C278.682 186.29 277.23 199.602 274.506 214H454V174H279.036Z" fill="white"/>
<path fill-rule="evenodd" clip-rule="evenodd" d="M454 264H262.339C263.482 257.348 265.919 250.916 268.275 244.696C270.994 237.518 273.605 230.623 274 224H454V264Z" fill="white"/>
<path d="M273.131 324H454V364H276.554C276.554 363.148 276.559 362.202 276.563 361.177C276.609 351.171 276.688 333.71 273.131 324Z" fill="white"/>
<path d="M260 274H454V314H259.942C258.863 310.705 254 310 257.6 302C260.957 298.191 260.109 290.263 256.5 287L260 274Z" fill="white"/>
</svg>
